<?xml version="1.0" ?><svg xmlns="http://www.w3.org/2000/svg" xmlns:xlink="http://www.w3.org/1999/xlink" version="1.1" id="Layer_1" viewBox="0 0 32 32" style="enable-background:new 0 0 32 32;" xml:space="preserve"><style type="text/css">
	.st0{fill:none;stroke:#000000;stroke-linecap:round;stroke-linejoin:round;stroke-miterlimit:10;}
</style><g><path class="st0" d="M11.4,28.7L11.4,28.7C5.6,28.7,1,24.1,1,18.4c0-4.9,3.5-9.1,8.1-10.1l2.2,10.1L11.4,28.7L11.4,28.7z"/><path class="st0" d="M21.7,18.4c0,2.8-1.1,5.3-2.9,7.2l-7.4-7.2l7.3-7.3C20.5,13,21.7,15.6,21.7,18.4z"/><path class="st0" d="M18.7,25.6c-1.9,1.9-4.5,3.2-7.4,3.2l0,0V18.4L18.7,25.6z"/><circle class="st0" cx="17.9" cy="18.4" r="1.2"/><circle class="st0" cx="14.2" cy="25" r="1.2"/><circle class="st0" cx="13.4" cy="11.8" r="1.2"/><polyline class="st0" points="19.2,18.4 23.6,18.4 23.6,20.4 25.1,20.4  "/><path class="st0" d="M30.6,21.4h-5.1c-0.2,0-0.4-0.2-0.4-0.4v-1.2c0-0.2,0.2-0.4,0.4-0.4h5.1c0.2,0,0.4,0.2,0.4,0.4V21   C31,21.2,30.8,21.4,30.6,21.4z"/><path class="st0" d="M25.8,30.4h-5.1c-0.2,0-0.4-0.2-0.4-0.4v-1.2c0-0.2,0.2-0.4,0.4-0.4h5.1c0.2,0,0.4,0.2,0.4,0.4V30   C26.2,30.2,26.1,30.4,25.8,30.4z"/><path class="st0" d="M16,3.6h-5.1c-0.2,0-0.4-0.2-0.4-0.4V2c0-0.2,0.2-0.4,0.4-0.4H16c0.2,0,0.4,0.2,0.4,0.4v1.2   C16.4,3.4,16.2,3.6,16,3.6z"/><path class="st0" d="M18.6,11.1l-7.3,7.3L9.1,8.3h0.1c0.7-0.1,1.4-0.2,2.1-0.2c0.9,0,1.8,0.1,2.6,0.3C15.8,8.9,17.4,9.9,18.6,11.1z   "/><line class="st0" x1="13.4" y1="10.5" x2="13.4" y2="3.6"/><polyline class="st0" points="14.2,26.3 14.2,29.4 20.3,29.4  "/></g></svg>