<?xml version="1.0" encoding="UTF-8" standalone="no"?>
<svg
   height="17"
   viewBox="0 0 87.955809 17.00004"
   width="87.954636"
   version="1.1"
   id="svg3"
   sodipodi:docname="University_of_Michigan_logo.svg"
   xmlns:inkscape="http://www.inkscape.org/namespaces/inkscape"
   xmlns:sodipodi="http://sodipodi.sourceforge.net/DTD/sodipodi-0.dtd"
   xmlns="http://www.w3.org/2000/svg"
   xmlns:svg="http://www.w3.org/2000/svg">
  <defs
     id="defs3" />
  <sodipodi:namedview
     id="namedview3"
     pagecolor="#ffffff"
     bordercolor="#000000"
     borderopacity="0.25"
     inkscape:showpageshadow="2"
     inkscape:pageopacity="0.0"
     inkscape:pagecheckerboard="0"
     inkscape:deskcolor="#d1d1d1" />
  <g
     transform="matrix(0.51795693,0,0,-0.51795693,-101.78721,318.7652)"
     id="g3">
    <g
       transform="translate(0.20095,0.20095)"
       id="g2">
      <path
         d="m 219.11,588.13 -9.304,12.847 v -9.3442 h 3.7218 v -9.227 h -17.212 v 9.227 h 3.4888 v 14.367 h -3.4888 v 9.2277 h 13.52 l 9.3198,-12.964 9.3398,12.964 h 13.519 v -9.2277 h -3.4892 v -14.367 h 3.4892 v -9.227 h -17.211 v 9.227 h 3.7207 v 9.3442 z"
         fill="#ffcb05"
         id="path1"
         style="fill:#ffffff;fill-opacity:1" />
      <path
         d="m 144.27,1.5664 c -2.2575,0 -4.2012,1.3793 -4.2012,3.8418 0,2.555 2.0354,3.3939 3.1191,3.7852 0.5225,0.205 1.0824,0.37242 1.6074,0.57617 0.63375,0.26375 2.0703,0.85836 2.0703,2.3496 0,1.4188 -1.2303,2.0137 -2.6328,2.0137 -1.9775,0 -3.1931,-1.1563 -3.9219,-3.2988 l -0.67187,0.07227 0.1914,2.5938 1.0977,0.80273 c 0.52125,0.335 1.6235,1.043 3.416,1.043 2.7812,0 4.6484,-1.8812 4.6484,-4.1562 0,-1.585 -0.85929,-2.7412 -1.9043,-3.3574 -0.54,-0.31625 -1.1548,-0.52367 -1.9024,-0.76367 -1.475,-0.48625 -3.0254,-1.0112 -3.0254,-2.5762 0,-1.0438 0.82071,-1.7148 2.2207,-1.7148 1.0462,0 1.9424,0.38117 2.5762,1.2012 0.5225,0.6925 0.69226,1.0917 0.91601,1.9492 l 0.65039,-0.12891 -0.42773,-3.916 -0.80078,0.57617 c -1.1188,-0.70875 -2.1466,-0.89258 -3.0254,-0.89258 z m 51.348,0.091797 c -4.2338,-0.02 -6.6426,3.2255 -6.6426,6.8242 0,4.1975 2.9941,6.957 6.8203,6.957 3.4912,0 6.5898,-2.3862 6.5898,-6.9375 0,-3.9912 -2.7813,-6.825 -6.7676,-6.8438 z m -25.852,0.16797 v 0.72656 c 1.2688,0.075 1.287,0.1118 2.2383,1.5293 l 3.5059,5.4277 v 2.3105 c -0.0175,1.4375 -0.0177,1.7728 -0.3164,2.0703 -0.2625,0.26125 -0.65344,0.29961 -1.6797,0.41211 v 0.70898 h 6.4902 v -0.70898 c -1.9575,-0.1125 -1.9766,-0.29805 -1.9766,-2.6855 v -2.7441 l 2.0508,-3.4297 c 1.5112,-2.4612 1.9016,-2.8519 3.2266,-2.8906 v -0.72656 h -5.1465 v 0.72656 c 0.91375,0.05625 1.4531,0.075234 1.4531,0.70898 0,0.3 -0.18398,0.69125 -0.52148,1.3438 l -1.8633,3.2773 -2.0156,-3.2969 c -0.335,-0.56 -0.57617,-0.97047 -0.57617,-1.3242 0,-0.63375 0.61414,-0.67023 1.9941,-0.70898 v -0.72656 h -6.8633 z M 127.27,1.839839 v 0.71094 c 1.0812,0.09125 1.4368,0.22297 1.5293,0.94922 0.0563,0.42875 0.0742,0.98656 0.0742,2.5703 v 4.7637 c 0,0.54125 -7.8e-4,1.1541 -0.0195,1.6953 -0.0187,1.415 -0.16648,1.6412 -1.584,1.75 v 0.73242 h 5.498 v -0.73242 c -1.585,-0.03375 -1.5867,-0.44094 -1.6055,-3.4609 l 0.002,-1.7109 c 1.25,0.02 1.5105,-0.083281 2.293,1.5742 l 0.72851,1.5488 c 1.045,2.2175 2.0708,3.0762 4.5508,3.0762 0.29875,0 0.57618,-0.01711 0.85743,-0.03711 v -0.44726 c -1.0638,-0.14625 -1.5096,-0.50328 -2.3496,-2.0508 l -2.332,-4.0547 c 1.8088,-0.56125 2.5918,-2.2117 2.5918,-3.4805 0,-1.8262 -1.0245,-3.373 -4.2695,-3.373 l -5.9648,-0.023437 z m -11.576,0.00195 v 0.70898 c 0.95125,0.095 1.3609,0.14992 1.4922,0.76367 0.0925,0.41 0.11133,1.8642 0.11133,2.3867 v 4.6289 c 0,0.35375 -0.0184,1.9396 -0.0371,2.2559 -0.0375,1.4375 -0.20515,1.566 -1.5664,1.6973 v 0.72852 h 10.035 c 0,-0.95 0.1668,-2.5184 0.2793,-3.4121 h -0.63477 c -0.44875,2.35 -1.772,2.2344 -3.6758,2.2344 -1.7525,0 -2.1055,-0.46547 -2.1055,-1.3242 v -3.6816 h 1.418 c 1.6225,0 2.0879,0.13898 2.0879,1.6152 h 0.63477 v -4.3477 h -0.63477 c -0.13,1.175 -0.37281,1.5586 -2.0703,1.5586 h -1.4356 v -4.6387 h 1.623 c 2.2362,0 3.0384,0.16898 3.3359,1.959 h 0.59765 l -0.0762,-3.1328 h -9.3789 z m 40.994,0 -0.11133,3.6934 h 0.6914 c 0.11125,-2.35 1.0974,-2.2949 2.5898,-2.2949 h 1.6426 v 9.6992 c 0,1.0462 -0.33508,1.4949 -1.5488,1.5137 v 0.55859 h 5.4473 l -0.002,-0.55859 c -1.2125,-0.01875 -1.5469,-0.46742 -1.5469,-1.5137 v -9.6992 h 1.6406 c 1.4925,0 2.4806,-0.055078 2.5918,2.2949 h 0.6914 l -0.11328,-3.6934 h -11.973 z m -92.111,0.00391 v 0.70703 c 0.98875,0.05625 1.3985,0.22562 1.5098,1.0469 0.0375,0.335 0.03789,0.96602 0.05664,2.3848 v 2.9824 c 0,2.1275 0.01906,4.1059 1.9766,5.4297 1.2312,0.82125 2.7224,0.92969 3.4512,0.92969 0.9125,0 4.3648,-0.18406 5.2598,-3.7266 0.22375,-0.95125 0.27695,-1.9423 0.31445,-2.9473 0.01875,-0.55875 0.16875,-4.2145 0.1875,-4.5332 0.075,-1.3025 0.33641,-1.5839 1.5664,-1.5664 v -0.70703 h -5.0176 v 0.70703 c 1.1762,0.095 1.7902,0.13047 1.8652,1.3242 0.01875,0.43 0.01953,1.9962 0.01953,2.4824 0,1.5288 -0.01812,3.8403 -0.39062,5.0703 -0.4475,1.5475 -1.4827,2.5273 -3.3652,2.5273 -0.57875,0 -1.7247,-0.12617 -2.3984,-1.1074 -0.845,-1.2362 -0.875,-2.613 -0.875,-4.2168 v -3.0957 c 0.01875,-2.7975 0.01703,-2.8531 1.7695,-2.9844 v -0.70703 h -5.9297 z m 15.318,0 v 0.70703 c 0.8775,0.075 1.1755,0.20695 1.9043,0.87695 -0.01875,1.3625 -0.07547,9.1745 -0.26172,10.051 -0.14875,0.74625 -0.56008,0.76602 -1.6426,0.82226 v 0.70898 h 5.3711 v -0.70898 c -2.0138,-0.20375 -2.1621,-0.27875 -2.1621,-2.4062 v -6.8281 l 5.2012,6.418 c 0.59625,0.7275 1.1948,1.4745 1.791,2.2207 l 1.1738,1.4727 h 0.78516 l 0.1875,-10.164 c 0.01875,-2.145 0.14773,-2.4441 1.584,-2.4629 v -0.70703 h -5.1855 v 0.70703 c 2.09,0.075 2.1453,0.18734 2.1641,2.2773 v 5.8926 l -3.6738,-4.5527 c -1.9388,-2.405 -2.182,-2.7592 -3.2832,-4.3242 h -3.9531 z m 15.35,0 v 0.70703 c 1.5475,0.225 1.5477,0.29727 1.5664,3.041 v 5.332 1.6797 c -0.01875,1.3812 -0.28141,1.5285 -1.5664,1.6973 v 0.70898 h 5.4668 v -0.70898 c -1.0237,-0.075 -1.3977,-0.26125 -1.4902,-1.0625 -0.0375,-0.3925 -0.05664,-1.8665 -0.05664,-2.334 v -5.3125 c 0,-2.8162 -6.25e-4,-2.8898 1.5469,-3.041 v -0.70703 h -5.4668 z m 6.7207,0 v 0.70703 c 1.3238,0.2075 1.4351,0.50516 2.3301,3.0039 l 3.5996,9.7168 h 0.70898 l 4.0098,-9.5703 c 1.0812,-2.6088 1.2501,-2.9629 2.5176,-3.1504 v -0.70703 h -4.6074 v 0.70703 c 0.82,0.01875 1.7539,0.055313 1.7539,1.0078 0,0.335 -0.22383,0.93148 -0.39258,1.3965 l -2.6836,6.9199 -2.2949,-6.6934 c -0.35375,-1.1012 -0.44922,-1.4185 -0.44922,-1.791 0,-0.765 0.6914,-0.80109 1.7539,-0.83984 v -0.70703 h -6.2461 z m 47.889,0 v 0.70703 c 1.5488,0.225 1.5503,0.29727 1.5703,3.041 v 5.332 1.6797 c -0.02,1.3812 -0.28281,1.5285 -1.5703,1.6973 v 0.70898 h 5.4668 v -0.70898 c -1.0238,-0.075 -1.3977,-0.26125 -1.4902,-1.0625 -0.0375,-0.3925 -0.0566,-1.8665 -0.0566,-2.334 v -5.3125 c 0,-2.8162 -6.2e-4,-2.8898 1.5469,-3.041 v -0.70703 h -5.4668 z m 53.174,0.09375 v 0.70703 c 0.95125,0.0925 1.3602,0.14992 1.4902,0.76367 0.095,0.41125 0.11329,1.8649 0.11329,2.3887 l -0.002,4.627 c 0,0.35375 -0.0191,1.9377 -0.0391,2.2539 -0.035,1.4338 -0.20445,1.566 -1.5644,1.6973 v 0.72656 h 5.4531 v -0.72656 c -1.3612,-0.13125 -1.5289,-0.26352 -1.5664,-1.6973 l 0.008,-3.7578 h 1.457 c 1.4712,0 2.2539,0.14078 2.3477,1.6133 h 0.63671 v -4.3457 h -0.63671 c -0.075,1.4188 -0.46461,1.5586 -2.0684,1.5586 h -1.7363 l 0.002,-4.5586 c 0.4675,-0.0575 0.72836,-0.076172 1.5684,-0.076172 2.5738,0 3.403,-0.011719 3.748,2.0508 h 0.65429 l -0.20703,-3.2246 h -9.6582 z m -7.3926,0.92969 c 1.0975,-0.03375 1.9337,0.63414 2.3574,1.0879 0.9675,1.0325 1.4416,2.4888 1.4941,4.1875 0.0525,1.7138 -0.13906,3.0251 -1.0703,4.4551 -0.81375,1.235 -1.8624,1.6057 -2.6074,1.627 -0.74375,0 -1.8011,-0.33562 -2.6523,-1.5469 -0.97375,-1.4 -1.2051,-2.7024 -1.2051,-4.4199 0,-1.6975 0.42703,-3.1731 1.3633,-4.2344 0.41125,-0.465 1.2228,-1.1562 2.3203,-1.1562 z m -63.66,0.1368 c 2.4238,0 3.1933,1.3216 3.1133,2.8516 -0.055,1.0538 -1.188,2.2296 -2.6855,2.2246 -0.3725,0 -0.87672,-0.058359 -1.2305,-0.13086 v -4.8691 c 0.26125,-0.05625 0.46648,-0.076172 0.80273,-0.076172 z m 51.979,17.508 c -0.9875,0.73625 -1.6367,1.074 -3.9492,1.834 l 0.30859,0.48047 -5.3867,14.783 c -0.7625,2.085 -1.4398,2.5107 -3.5274,2.5957 v 1.0723 h 8.2109 v -1.0723 c -1.2125,-0.05625 -2.709,-0.14023 -2.709,-1.5527 0,-0.42 0.11266,-0.81719 0.25391,-1.2422 l 0.61719,-1.7207 h 7.0234 l 0.59765,2.0332 c 0.1125,0.36625 0.22656,0.79055 0.22656,1.1855 0,1.1 -1.0447,1.2119 -2.3984,1.2969 v 1.0723 h 8.7266 0.58203 7.543 v -1.0723 c -3.0475,-0.31125 -3.2734,-0.42367 -3.2734,-3.6387 v -10.332 l 7.8711,9.709 c 0.90375,1.1025 1.8045,2.2287 2.707,3.3574 l 1.7793,2.2305 h 1.1856 l 0.28125,-15.375 c 0.0275,-3.2425 0.22594,-3.6977 2.3984,-3.7227 v -1.0742 h -7.8438 v 1.0742 c 3.16,0.1125 3.2447,0.2807 3.2734,3.4395 v 8.9141 l -5.5586,-6.8848 c -2.9338,-3.6388 -3.3011,-4.173 -4.9648,-6.543 h -5.9805 v 1.0742 c 1.3262,0.1125 1.777,0.30922 2.877,1.3242 -0.0288,2.0588 -0.11328,13.878 -0.39453,15.207 -0.20457,1.0206 -0.77323,1.1364 -2.082,1.2129 -1.9434,-0.24505 -2.325,-0.86572 -3.0898,-3.1895 l -4.4004,-13.543 c -0.45125,-1.41 -0.50805,-1.5786 -0.9043,-2.9336 z m -21.596,0.33789 c -5.41,0 -9.7266,4.1465 -9.7266,10.521 0,5.2175 3.2759,10.412 10.131,10.412 3.91,0 6.1192,-1.3843 7.668,-2.3418 v -1.4961 c 0.0513,-3.78 0.051,-4.2879 1.8535,-4.4004 v -1.0723 h -8.0234 v 1.0723 c 2.21,0.2275 2.5526,0.28211 2.6426,2.8184 0.03,0.8775 -0.0512,1.3563 -0.40625,1.8926 -0.1025,0.1125 -1.2463,1.6641 -3.4551,1.6641 -3.885,0 -6.1426,-3.9202 -6.1426,-8.4902 0,-5.7288 2.8943,-8.6621 6.373,-8.6621 2.005,0 3.2755,0.83172 3.9355,1.4805 1.4975,1.4962 2.1087,2.8638 2.5137,4.0488 l 0.8125,-0.14062 -0.15235,-6.2363 -1.0391,1.1855 c -1.625,-0.9875 -3.5819,-2.2559 -6.9844,-2.2559 z m -51.115,0.0293 c -6.7262,0 -10.023,5.3059 -10.023,10.693 0,5.8125 3.8881,10.24 9.8906,10.24 5.495,0 7.6123,-3.5273 8.4961,-4.9648 l -1.1855,-0.89844 c -1.045,1.495 -2.3522,3.4395 -5.8359,3.4395 -4.6112,0 -6.9434,-4.1191 -6.9434,-8.4941 0,-5.1638 2.8423,-8.0938 6.4336,-8.0938 2.09,0 3.5641,1.2953 4.1816,1.9453 1.2862,1.41 1.7951,2.3393 2.1426,3.498 l 0.88477,-0.17188 -0.10742,-6.0371 -1.3672,1.2422 c -1.1512,-0.9 -3.0289,-2.3984 -6.5664,-2.3984 z m -45.881,0.48047 v 1.0742 c 1.7762,0.025 2.1719,0.16812 2.1719,2.1406 0,0.70625 0.0014,1.6657 -0.02734,2.3145 l -0.28125,8.3496 c -0.03,1.1 -0.11367,2.7658 -0.16992,3.3008 -0.11375,1.355 -0.735,1.581 -2.3438,1.666 v 1.0723 h 6.9141 v -1.0723 c -2.1162,-0.16875 -2.3418,-0.53617 -2.3418,-2.4824 l 0.14844,-11.713 6.3965,15.521 h 1.75 l 6.9668,-15.32 v 10.018 c -0.02875,3.6962 -0.02781,3.8078 -2.5391,3.9766 v 1.0723 h 8.7168 v -1.0723 c -1.58,-0.14125 -2.1434,-0.42312 -2.2559,-1.8906 -0.085,-1.0162 -0.11328,-2.7075 -0.11328,-4.0625 v -8.209 c -0.0275,-3.1038 -8.59e-4,-3.358 2.3691,-3.498 v -1.1855 h -6.0645 l -6.8262,15.121 -6.209,-15.121 h -6.2617 z m 27.314,0 v 1.0742 c 2.3412,0.3375 2.3404,0.44945 2.3691,4.5957 v 8.0703 2.5352 c -0.02875,2.09 -0.42164,2.3166 -2.3691,2.5703 v 1.0723 h 8.2695 v -1.0723 c -1.5513,-0.1125 -2.1166,-0.39688 -2.2578,-1.6094 -0.05625,-0.59125 -0.08398,-2.8211 -0.08398,-3.5273 v -8.0391 c 0,-4.2588 5.47e-4,-4.3707 2.3418,-4.5957 v -1.0742 h -8.2695 z m 28.402,0 v 1.0742 c 1.5512,0.13875 2.1141,0.30844 2.2266,1.4922 0.085,0.62125 0.0859,1.9193 0.0859,3.2168 v 8.3516 c 0,0.70375 1.6e-4,1.409 -0.0273,2.1152 0,1.9162 -0.0289,2.3982 -2.2852,2.5957 v 1.0723 h 8.5254 v -1.0723 c -2.5675,-0.28125 -2.6236,-0.28094 -2.6523,-4.4297 v -3.6523 c 1.7212,-0.08625 3.0632,-0.14062 4.7832,-0.14062 1.6362,0 2.9493,0.08438 4.5293,0.14062 v 3.6523 c 0,1.44 -3.9e-4,2.2012 -0.0566,2.7637 -0.17124,1.385 -0.70648,1.4373 -2.709,1.666 v 1.0723 h 8.6367 v -1.0723 c -1.4675,-0.14125 -2.0599,-0.33726 -2.2012,-1.3848 -0.085,-0.58875 -0.11328,-3.1006 -0.11328,-3.8906 v -8.4082 c 0,-3.7788 -5.5e-4,-3.8066 2.3144,-4.0879 v -1.0742 h -8.6367 v 1.0742 c 2.7088,0.2525 2.7369,0.3925 2.7656,4.0312 v 3.3457 c -1.6938,0.08375 -3.0341,0.14062 -4.7266,0.14062 -1.6638,0 -2.8647,-0.05688 -4.5859,-0.14062 v -2.752 c 0,-1.1862 0.0287,-2.6533 0.16992,-3.3008 0.1975,-1.1 0.81742,-1.1555 2.4824,-1.3242 v -1.0742 h -8.5254 z m 22.705,0 v 1.0742 c 2.3438,0.3375 2.3443,0.44945 2.373,4.5957 v 8.0703 2.5352 c -0.0288,2.09 -0.42429,2.3166 -2.373,2.5703 v 1.0723 h 8.2793 v -1.0723 c -1.55,-0.1125 -2.1126,-0.39688 -2.2539,-1.6094 -0.0575,-0.59125 -0.0879,-2.8211 -0.0879,-3.5273 v -8.0391 c 0,-4.2588 5.4e-4,-4.3707 2.3418,-4.5957 v -1.0742 z m 37.654,3.9297 2.7949,8.2559 h -5.7227 l 2.9277,-8.2559 z"
         transform="matrix(0.8,0,0,-0.8,195.71,616.03)"
         fill="#00274c"
         id="path2"
         style="fill:#ffffff;fill-opacity:1" />
    </g>
  </g>
</svg>
