<?xml version="1.0" standalone="no"?>
<!DOCTYPE svg PUBLIC "-//W3C//DTD SVG 20010904//EN"
 "http://www.w3.org/TR/2001/REC-SVG-20010904/DTD/svg10.dtd">
<svg version="1.0" xmlns="http://www.w3.org/2000/svg"
 width="512.000000pt" height="512.000000pt" viewBox="0 0 512.000000 512.000000"
 preserveAspectRatio="xMidYMid meet">

<g transform="translate(0.000000,512.000000) scale(0.100000,-0.100000)"
fill="#FFDB6E" stroke="none">
<path d="M3656 4671 c-109 -297 -232 -418 -538 -526 -60 -21 -108 -43 -108
-50 0 -14 3 -15 162 -74 128 -48 202 -93 286 -174 102 -100 142 -170 216 -379
16 -43 34 -78 41 -78 14 0 13 -2 61 128 57 158 99 228 194 322 96 97 176 144
344 201 87 30 119 50 104 65 -3 2 -60 24 -127 49 -136 49 -202 84 -278 147
-111 93 -168 181 -238 371 -26 70 -53 127 -60 127 -7 0 -33 -58 -59 -129z"/>
<path d="M2055 3918 c-7 -18 -43 -116 -80 -218 -37 -102 -85 -222 -106 -267
-124 -260 -355 -497 -617 -632 -57 -29 -201 -88 -320 -131 -119 -43 -221 -86
-227 -94 -7 -11 -7 -21 0 -32 6 -8 108 -51 227 -94 296 -107 413 -167 565
-291 150 -123 291 -302 372 -472 21 -45 69 -165 106 -267 93 -258 90 -250 119
-250 27 0 21 -15 121 265 71 198 116 295 193 410 104 157 241 295 400 401 112
75 188 109 446 204 194 71 236 90 236 110 0 20 -42 39 -231 109 -268 98 -326
125 -447 204 -166 110 -297 239 -404 402 -77 115 -122 212 -193 410 -100 280
-94 265 -121 265 -19 0 -28 -8 -39 -32z"/>
<path d="M3674 1653 c-74 -210 -114 -280 -216 -380 -84 -81 -158 -126 -286
-174 -158 -59 -162 -60 -162 -74 0 -6 58 -33 128 -59 163 -59 238 -103 326
-192 89 -88 133 -162 192 -326 26 -70 52 -128 59 -128 7 0 34 57 60 128 70
189 127 277 238 370 76 63 142 98 278 147 67 25 124 47 127 49 15 15 -17 35
-104 65 -168 57 -248 104 -344 201 -95 94 -137 164 -194 322 -48 130 -47 128
-61 128 -7 0 -25 -35 -41 -77z"/>
</g>
</svg>
