<?xml version="1.0" standalone="no"?>
<!DOCTYPE svg PUBLIC "-//W3C//DTD SVG 20010904//EN"
 "http://www.w3.org/TR/2001/REC-SVG-20010904/DTD/svg10.dtd">
<svg version="1.0" xmlns="http://www.w3.org/2000/svg"
 width="512.000000pt" height="512.000000pt" viewBox="0 0 512.000000 512.000000"
 preserveAspectRatio="xMidYMid meet">

<g transform="translate(0.000000,512.000000) scale(0.100000,-0.100000)"
fill="#000000" stroke="none">
<path d="M466 5030 c-63 -16 -153 -70 -197 -117 -22 -24 -55 -74 -72 -111 -29
-61 -32 -76 -32 -163 0 -90 2 -99 37 -171 45 -91 103 -147 196 -191 61 -29 76
-32 162 -32 98 0 146 15 235 73 l30 20 365 -280 c201 -153 365 -282 365 -286
-1 -4 -7 -26 -14 -49 l-14 -43 -289 0 c-237 0 -288 2 -288 14 0 7 -16 45 -35
83 -43 86 -103 144 -193 186 -61 29 -76 32 -162 32 -86 0 -101 -3 -162 -32
-93 -44 -151 -100 -196 -191 -35 -72 -37 -81 -37 -171 0 -87 3 -102 32 -163
43 -91 101 -151 187 -193 127 -63 258 -58 377 14 l63 38 138 -105 c76 -58 138
-108 138 -112 0 -4 -62 -54 -138 -112 l-138 -105 -63 38 c-119 72 -250 77
-377 14 -86 -42 -144 -102 -187 -193 -29 -61 -32 -76 -32 -163 0 -90 2 -99 37
-171 106 -214 358 -290 559 -169 l63 38 138 -105 c76 -58 138 -108 138 -112 0
-4 -62 -54 -138 -112 l-138 -105 -63 38 c-114 69 -247 76 -367 20 -89 -41
-147 -99 -192 -189 -35 -72 -37 -81 -37 -172 0 -91 2 -100 37 -172 45 -91 103
-147 196 -191 61 -29 76 -32 162 -32 86 0 101 3 162 32 90 42 150 100 193 186
19 38 35 76 35 83 0 12 51 14 288 14 l289 0 14 -43 c7 -23 13 -45 14 -49 0 -3
-164 -132 -365 -286 -340 -261 -366 -279 -385 -266 -11 8 -49 29 -85 47 -59
29 -73 32 -160 32 -86 0 -101 -3 -162 -32 -93 -44 -151 -100 -196 -191 -35
-72 -37 -81 -37 -172 0 -91 2 -100 37 -172 45 -91 103 -147 196 -191 61 -29
76 -32 162 -32 86 0 101 3 162 32 91 43 151 101 194 187 44 91 54 182 29 271
-9 33 -17 65 -18 72 -1 6 162 137 363 291 l365 280 30 -20 c89 -58 137 -73
235 -73 86 0 101 3 162 32 90 42 150 100 193 186 19 38 35 76 35 83 0 11 38
14 205 14 l205 0 0 -96 c0 -128 13 -168 75 -229 70 -71 145 -91 239 -63 78 23
166 135 166 212 0 13 11 16 62 16 l63 0 480 -480 480 -480 107 0 106 0 12 -30
c28 -68 129 -130 210 -130 124 0 240 116 240 240 0 125 -114 240 -238 240 -83
0 -184 -62 -212 -130 -12 -29 -14 -30 -84 -30 l-71 0 -480 480 -480 480 -98 0
-97 0 0 120 0 120 182 0 183 0 320 -320 321 -320 146 0 146 0 12 -30 c28 -68
129 -130 210 -130 124 0 240 116 240 240 0 124 -116 240 -240 240 -81 0 -182
-62 -210 -130 l-12 -30 -112 0 -111 0 -320 320 -321 320 -217 0 -217 0 0 120
0 120 342 0 342 0 161 -160 161 -160 146 0 146 0 12 -30 c28 -68 129 -130 210
-130 124 0 240 116 240 240 0 125 -114 240 -238 240 -83 0 -184 -62 -212 -130
l-12 -30 -111 0 -111 0 -161 160 -161 160 -377 0 -377 0 0 120 0 120 649 0
649 0 12 -30 c28 -68 129 -130 210 -130 124 0 240 116 240 240 0 124 -116 240
-240 240 -81 0 -182 -62 -210 -130 l-12 -30 -649 0 -649 0 0 120 0 120 377 0
377 0 161 160 161 160 111 0 111 0 12 -30 c28 -68 129 -130 210 -130 124 0
240 116 240 240 0 124 -116 240 -240 240 -81 0 -182 -62 -210 -130 l-12 -30
-146 0 -146 0 -161 -160 -161 -160 -342 0 -342 0 0 120 0 120 217 0 217 0 321
320 320 320 111 0 112 0 12 -30 c28 -68 129 -130 210 -130 124 0 240 116 240
240 0 125 -114 240 -238 240 -83 0 -184 -62 -212 -130 l-12 -30 -146 0 -146 0
-321 -320 -320 -320 -183 0 -182 0 0 120 0 120 97 0 98 0 480 480 480 480 71
0 c70 0 72 -1 84 -30 28 -68 129 -130 210 -130 124 0 240 116 240 240 0 124
-116 240 -240 240 -81 0 -182 -62 -210 -130 l-12 -30 -106 0 -107 0 -480 -480
-480 -480 -63 0 -62 0 0 56 c0 81 -18 129 -67 184 -95 106 -236 108 -338 5
-66 -65 -75 -99 -75 -269 l0 -136 -205 0 c-167 0 -205 3 -205 14 0 7 -16 45
-35 83 -43 86 -103 144 -193 186 -61 29 -76 32 -162 32 -87 0 -101 -3 -160
-32 -36 -18 -74 -39 -85 -47 -19 -13 -45 5 -385 266 -201 154 -364 285 -363
291 1 7 9 39 18 72 66 235 -115 479 -363 491 -42 2 -94 -1 -116 -6z m168 -162
c86 -26 166 -136 166 -228 0 -124 -116 -240 -240 -240 -63 0 -114 23 -165 75
-102 101 -102 229 0 330 70 71 145 90 239 63z m4141 -93 c16 -15 25 -36 25
-55 0 -19 -9 -40 -25 -55 -15 -16 -36 -25 -55 -25 -19 0 -40 9 -55 25 -16 15
-25 36 -25 55 0 19 9 40 25 55 15 16 36 25 55 25 19 0 40 -9 55 -25z m0 -720
c16 -15 25 -36 25 -55 0 -19 -9 -40 -25 -55 -15 -16 -36 -25 -55 -25 -19 0
-40 9 -55 25 -16 15 -25 36 -25 55 0 19 9 40 25 55 15 16 36 25 55 25 19 0 40
-9 55 -25z m-1760 -80 l25 -24 0 -1351 0 -1351 -25 -24 c-32 -33 -78 -33 -110
0 l-25 24 0 1351 0 1351 25 24 c15 16 36 25 55 25 19 0 40 -9 55 -25z m-2381
-147 c86 -26 166 -136 166 -228 0 -124 -116 -240 -240 -240 -63 0 -114 23
-165 75 -102 101 -102 229 0 330 70 71 145 90 239 63z m1360 0 c55 -16 138
-99 154 -154 28 -94 8 -169 -63 -239 -51 -52 -102 -75 -165 -75 -124 0 -240
116 -240 240 0 63 23 114 75 165 70 71 145 90 239 63z m-453 -350 c7 -24 13
-46 14 -50 0 -4 -71 -61 -157 -127 l-158 -120 -157 120 c-87 66 -158 123 -158
127 1 4 7 26 14 50 l14 42 287 0 287 0 14 -42z m1179 -398 l0 -440 -205 0
c-167 0 -205 3 -205 14 0 7 -16 45 -35 83 -43 86 -103 144 -193 186 -61 29
-76 32 -162 32 -82 0 -103 -4 -153 -27 -32 -15 -69 -36 -83 -47 l-26 -20 -139
106 c-76 58 -139 109 -139 113 0 4 62 54 138 112 l138 105 63 -38 c198 -120
452 -45 556 164 19 38 35 76 35 83 0 11 38 14 205 14 l205 0 0 -440z m2055
255 c16 -15 25 -36 25 -55 0 -19 -9 -40 -25 -55 -15 -16 -36 -25 -55 -25 -19
0 -40 9 -55 25 -16 15 -25 36 -25 55 0 19 9 40 25 55 15 16 36 25 55 25 19 0
40 -9 55 -25z m-3378 -476 c87 -66 158 -123 158 -127 -1 -4 -7 -26 -14 -49
l-14 -43 -287 0 -287 0 -14 43 c-7 23 -13 45 -14 49 0 5 298 242 312 247 1 1
73 -53 160 -120z m-763 -71 c55 -16 138 -99 154 -154 28 -94 8 -169 -63 -239
-101 -102 -229 -102 -330 0 -102 101 -102 229 0 330 70 71 145 90 239 63z
m1360 0 c86 -26 166 -136 166 -228 0 -124 -116 -240 -240 -240 -124 0 -240
116 -240 240 0 63 23 114 75 165 70 71 145 90 239 63z m2781 -173 c50 -49 15
-135 -55 -135 -41 0 -80 39 -80 80 0 19 9 40 25 55 15 16 36 25 55 25 19 0 40
-9 55 -25z m-3234 -177 c7 -24 13 -46 14 -50 0 -4 -71 -61 -157 -127 l-158
-120 -157 120 c-87 66 -158 123 -158 127 1 4 7 26 14 50 l14 42 287 0 287 0
14 -42z m1179 -398 l0 -440 -205 0 c-167 0 -205 3 -205 14 0 7 -16 45 -35 83
-43 86 -103 144 -193 186 -61 29 -76 32 -162 32 -82 0 -103 -4 -153 -27 -32
-15 -69 -36 -83 -47 l-26 -20 -139 106 c-76 58 -139 109 -139 113 0 4 62 54
138 112 l138 105 63 -38 c198 -120 452 -45 556 164 19 38 35 76 35 83 0 11 38
14 205 14 l205 0 0 -440z m-1323 -221 c87 -66 158 -123 158 -127 -1 -4 -7 -26
-14 -49 l-14 -43 -287 0 -287 0 -14 43 c-7 23 -13 45 -14 49 0 5 298 242 312
247 1 1 73 -53 160 -120z m3378 76 c50 -49 15 -135 -55 -135 -41 0 -80 39 -80
80 0 41 39 80 80 80 19 0 40 -9 55 -25z m-4141 -147 c55 -16 138 -99 154 -154
28 -94 8 -169 -63 -239 -101 -102 -229 -102 -330 0 -102 101 -102 229 0 330
70 71 145 90 239 63z m1360 0 c86 -26 166 -136 166 -228 0 -124 -116 -240
-240 -240 -124 0 -240 116 -240 240 0 63 23 114 75 165 70 71 145 90 239 63z
m2781 -573 c50 -49 15 -135 -55 -135 -41 0 -80 39 -80 80 0 41 39 80 80 80 19
0 40 -9 55 -25z m-4141 -467 c86 -26 166 -136 166 -228 0 -124 -116 -240 -240
-240 -124 0 -240 116 -240 240 0 63 23 114 75 165 70 71 145 90 239 63z m4141
-253 c50 -49 15 -135 -55 -135 -41 0 -80 39 -80 80 0 41 39 80 80 80 19 0 40
-9 55 -25z"/>
<path d="M2400 3200 l0 -80 80 0 80 0 0 80 0 80 -80 0 -80 0 0 -80z"/>
<path d="M2400 2880 l0 -80 80 0 80 0 0 80 0 80 -80 0 -80 0 0 -80z"/>
<path d="M2400 2240 l0 -80 80 0 80 0 0 80 0 80 -80 0 -80 0 0 -80z"/>
<path d="M2400 1920 l0 -80 80 0 80 0 0 80 0 80 -80 0 -80 0 0 -80z"/>
</g>
</svg>
