<svg xmlns="http://www.w3.org/2000/svg" viewBox="0 0 100 100" width="100" height="100">
  <!-- Cloud shape -->
  <path d="M30 50c0-9.94 8.06-18 18-18 7.63 0 14.15 4.75 16.73 11.42 6.83-1.21 12.77 4.19 12.77 11.08 0 6.07-4.93 11-11 11H35c-5.52 0-10-4.48-10-10 0-4.42 3.58-8 8-8z" fill="#4A90E2" stroke="#3C7EBB" stroke-width="3"/>
  
  <!-- Circuit lines to represent engineering -->
  <g stroke="#FFBC5E" stroke-width="2" stroke-linecap="round">
    <line x1="20" y1="80" x2="40" y2="60"/>
    <line x1="80" y1="80" x2="60" y2="60"/>
    <line x1="50" y1="65" x2="50" y2="90"/>
  </g>
  
  <!-- Circuit nodes -->
  <circle cx="40" cy="60" r="4" fill="#FFDB6E"/>
  <circle cx="60" cy="60" r="4" fill="#FFDB6E"/>
  <circle cx="50" cy="65" r="3" fill="#FFDB6E"/>
  <circle cx="50" cy="90" r="3" fill="#FFDB6E"/>
  <circle cx="20" cy="80" r="4" fill="#FFDB6E"/>
  <circle cx="80" cy="80" r="4" fill="#FFDB6E"/>
  
  <!-- Inner cloud details -->
  <g fill="#fff">
    <circle cx="45" cy="48" r="3"/>
    <circle cx="55" cy="48" r="3"/>
    <circle cx="50" cy="52" r="3"/>
  </g>
</svg>
