<?xml version="1.0" encoding="UTF-8"?>
<!DOCTYPE svg PUBLIC "-//W3C//DTD SVG 1.1//EN" "http://www.w3.org/Graphics/SVG/1.1/DTD/svg11.dtd">
<svg xmlns="http://www.w3.org/2000/svg" version="1.1" width="500px" height="500px" style="shape-rendering:geometricPrecision; text-rendering:geometricPrecision; image-rendering:optimizeQuality; fill-rule:evenodd; clip-rule:evenodd" xmlns:xlink="http://www.w3.org/1999/xlink">
<g><path style="opacity:1" fill="#404040" d="M -0.5,-0.5 C 166.167,-0.5 332.833,-0.5 499.5,-0.5C 499.5,102.833 499.5,206.167 499.5,309.5C 497.043,303.546 492.71,299.379 486.5,297C 455.833,296.333 425.167,296.333 394.5,297C 383.196,301.772 378.863,310.272 381.5,322.5C 370.147,322.832 358.814,322.499 347.5,321.5C 331.324,301.572 311.324,286.738 287.5,277C 289.645,273.688 292.312,270.854 295.5,268.5C 301.167,271.333 306.833,274.167 312.5,277C 318.653,278.848 320.653,276.848 318.5,271C 312.342,268.088 306.342,264.921 300.5,261.5C 302.482,258.19 304.815,255.19 307.5,252.5C 319.622,258.061 331.622,263.894 343.5,270C 348.288,269.902 349.621,267.569 347.5,263C 335.554,257.694 323.888,251.861 312.5,245.5C 314.427,242.65 316.594,239.983 319,237.5C 319.667,215.833 319.667,194.167 319,172.5C 316.667,169.833 314.333,169.833 312,172.5C 311.667,193.167 311.333,213.833 311,234.5C 306.667,240.167 302.333,245.833 298,251.5C 297.667,238.167 297.333,224.833 297,211.5C 294.731,208.946 292.398,208.946 290,211.5C 289.667,228.5 289.333,245.5 289,262.5C 285.643,266.356 282.476,270.356 279.5,274.5C 273.632,272.533 267.632,271.199 261.5,270.5C 260.845,251.069 260.178,231.735 259.5,212.5C 258.909,205.157 255.576,199.324 249.5,195C 247.091,193.293 244.425,192.46 241.5,192.5C 241.666,185.159 241.5,177.826 241,170.5C 238.225,162.023 232.392,157.189 223.5,156C 160.833,155.333 98.1667,155.333 35.5,156C 28.4555,158.21 23.4555,162.71 20.5,169.5C 15.8967,171.135 11.5634,173.302 7.5,176C 4.19454,179.464 1.52788,183.297 -0.5,187.5C -0.5,124.833 -0.5,62.1667 -0.5,-0.5 Z"/></g>
<g><path style="opacity:1" fill="#f98e4c" d="M 309.5,18.5 C 362.834,18.3333 416.168,18.5 469.5,19C 479.333,22.1667 485.833,28.6667 489,38.5C 489.667,100.167 489.667,161.833 489,223.5C 485.5,233.667 478.667,240.5 468.5,244C 426.167,244.667 383.833,244.667 341.5,244C 338.833,241.667 338.833,239.333 341.5,237C 383.5,236.667 425.5,236.333 467.5,236C 474.437,233.398 478.937,228.565 481,221.5C 481.667,160.833 481.667,100.167 481,39.5C 478.623,32.4545 473.79,28.2878 466.5,27C 414.5,26.3333 362.5,26.3333 310.5,27C 303.903,29.2634 299.736,33.7634 298,40.5C 297.667,92.5 297.333,144.5 297,196.5C 294.667,199.167 292.333,199.167 290,196.5C 289.333,143.833 289.333,91.1667 290,38.5C 293.351,28.6498 299.851,21.9831 309.5,18.5 Z"/></g>
<g><path style="opacity:1" fill="#fd904c" d="M 313.5,46.5 C 331.836,46.3334 350.17,46.5001 368.5,47C 371.167,49.3333 371.167,51.6667 368.5,54C 350.167,54.6667 331.833,54.6667 313.5,54C 310.914,51.506 310.914,49.006 313.5,46.5 Z"/></g>
<g><path style="opacity:1" fill="#f98e4c" d="M 314.5,78.5 C 366.168,78.3333 417.834,78.5 469.5,79C 471.648,81.0749 471.982,83.4082 470.5,86C 418.167,86.6667 365.833,86.6667 313.5,86C 312.426,85.2613 311.759,84.2613 311.5,83C 312.315,81.3566 313.315,79.8566 314.5,78.5 Z"/></g>
<g><path style="opacity:1" fill="#f98e4c" d="M 313.5,106.5 C 365.834,106.333 418.168,106.5 470.5,107C 471.982,109.592 471.648,111.925 469.5,114C 417.5,114.667 365.5,114.667 313.5,114C 310.901,111.421 310.901,108.921 313.5,106.5 Z"/></g>
<g><path style="opacity:1" fill="#eb884c" d="M 314.5,139.5 C 366.168,139.333 417.834,139.5 469.5,140C 472.167,142.667 472.167,145.333 469.5,148C 417.833,148.667 366.167,148.667 314.5,148C 310.605,145.178 310.605,142.345 314.5,139.5 Z"/></g>
<g><path style="opacity:1" fill="#f78e4c" d="M 259.5,212.5 C 258.846,232.196 259.512,251.529 261.5,270.5C 267.632,271.199 273.632,272.533 279.5,274.5C 282.476,270.356 285.643,266.356 289,262.5C 289.333,245.5 289.667,228.5 290,211.5C 292.398,208.946 294.731,208.946 297,211.5C 297.333,224.833 297.667,238.167 298,251.5C 302.333,245.833 306.667,240.167 311,234.5C 311.333,213.833 311.667,193.167 312,172.5C 314.333,169.833 316.667,169.833 319,172.5C 319.667,194.167 319.667,215.833 319,237.5C 316.594,239.983 314.427,242.65 312.5,245.5C 323.888,251.861 335.554,257.694 347.5,263C 349.621,267.569 348.288,269.902 343.5,270C 331.622,263.894 319.622,258.061 307.5,252.5C 304.815,255.19 302.482,258.19 300.5,261.5C 306.342,264.921 312.342,268.088 318.5,271C 320.653,276.848 318.653,278.848 312.5,277C 306.833,274.167 301.167,271.333 295.5,268.5C 292.312,270.854 289.645,273.688 287.5,277C 311.324,286.738 331.324,301.572 347.5,321.5C 358.814,322.499 370.147,322.832 381.5,322.5C 378.863,310.272 383.196,301.772 394.5,297C 425.167,296.333 455.833,296.333 486.5,297C 492.71,299.379 497.043,303.546 499.5,309.5C 499.5,320.833 499.5,332.167 499.5,343.5C 496.914,349.916 492.247,354.083 485.5,356C 454.833,356.667 424.167,356.667 393.5,356C 383.117,350.75 379.117,342.25 381.5,330.5C 379.833,330.5 378.167,330.5 376.5,330.5C 376.666,337.175 376.5,343.842 376,350.5C 374.174,354.037 371.84,354.371 369,351.5C 368.5,344.842 368.334,338.175 368.5,331.5C 366.735,330.539 364.735,330.205 362.5,330.5C 362.5,341.5 362.5,352.5 362.5,363.5C 362.441,365.722 361.275,366.722 359,366.5C 357.289,366.561 355.956,365.894 355,364.5C 354.5,353.172 354.333,341.838 354.5,330.5C 352.473,330.338 350.473,330.505 348.5,331C 329.452,357.189 304.452,375.023 273.5,384.5C 272.506,389.456 272.173,394.456 272.5,399.5C 278.842,399.334 285.175,399.5 291.5,400C 294.167,402.333 294.167,404.667 291.5,407C 285.175,407.5 278.842,407.666 272.5,407.5C 272.5,409.833 272.5,412.167 272.5,414.5C 282.839,414.334 293.172,414.5 303.5,415C 306.167,417.333 306.167,419.667 303.5,422C 293.172,422.5 282.839,422.666 272.5,422.5C 272.5,431.833 272.5,441.167 272.5,450.5C 288.167,450.5 303.833,450.5 319.5,450.5C 319.333,432.83 319.5,415.164 320,397.5C 322.67,390.165 327.837,385.665 335.5,384C 380.5,383.333 425.5,383.333 470.5,384C 477.737,385.568 482.904,389.734 486,396.5C 486.167,410.167 486.333,423.833 486.5,437.5C 486.634,452.552 486.134,467.552 485,482.5C 481.842,488.327 477.008,491.827 470.5,493C 425.5,493.667 380.5,493.667 335.5,493C 328.632,491.659 323.799,487.825 321,481.5C 319.609,474.254 319.109,466.921 319.5,459.5C 301.83,459.667 284.164,459.5 266.5,459C 265.177,458.184 264.511,457.017 264.5,455.5C 264.5,449.833 264.5,444.167 264.5,438.5C 256.833,438.5 249.167,438.5 241.5,438.5C 238.053,436.521 237.72,434.021 240.5,431C 248.159,430.5 255.826,430.334 263.5,430.5C 264.496,416.01 264.829,401.343 264.5,386.5C 262.901,386.232 261.568,386.566 260.5,387.5C 256.196,388.131 251.863,388.631 247.5,389C 165.5,389.667 83.5,389.667 1.5,389C 0.934056,388.005 0.267389,387.172 -0.5,386.5C -0.5,320.167 -0.5,253.833 -0.5,187.5C 1.52788,183.297 4.19454,179.464 7.5,176C 11.5634,173.302 15.8967,171.135 20.5,169.5C 23.4555,162.71 28.4555,158.21 35.5,156C 98.1667,155.333 160.833,155.333 223.5,156C 232.392,157.189 238.225,162.023 241,170.5C 241.5,177.826 241.666,185.159 241.5,192.5C 244.425,192.46 247.091,193.293 249.5,195C 255.576,199.324 258.909,205.157 259.5,212.5 Z"/></g>
<g><path style="opacity:1" fill="#414040" d="M 193.5,379.5 C 131.669,380.499 69.6689,380.832 7.5,380.5C 7.33334,316.832 7.5,253.166 8,189.5C 10.1667,184.667 13.6667,181.167 18.5,179C 43.1667,178.333 67.8333,178.333 92.5,179C 99.2206,182.721 104.221,188.054 107.5,195C 109.888,196.861 112.554,198.194 115.5,199C 157.5,199.333 199.5,199.667 241.5,200C 245.612,201.779 248.778,204.612 251,208.5C 251.5,228.497 251.667,248.497 251.5,268.5C 201.979,266.765 161.979,285.265 131.5,324C 107.428,336.452 83.5944,349.285 60,362.5C 59.1667,367 61,368.833 65.5,368C 88.2393,356.215 110.739,344.048 133,331.5C 148.907,352.911 169.073,368.911 193.5,379.5 Z"/></g>
<g><path style="opacity:1" fill="#f98e4c" d="M 344.5,191.5 C 386.501,191.333 428.501,191.5 470.5,192C 471.982,194.592 471.648,196.925 469.5,199C 427.833,199.667 386.167,199.667 344.5,199C 341.914,196.506 341.914,194.006 344.5,191.5 Z"/></g>
<g><path style="opacity:1" fill="#f88e4c" d="M 193.5,206.5 C 197.976,206.822 199.476,209.156 198,213.5C 195.542,214.64 193.375,216.14 191.5,218C 197.865,230.563 204.365,243.063 211,255.5C 212.5,260.667 210.667,262.5 205.5,261C 198.04,247.914 190.707,234.747 183.5,221.5C 180.905,222.713 178.405,224.047 176,225.5C 169.95,222.244 170.117,219.077 176.5,216C 182.552,213.313 188.219,210.146 193.5,206.5 Z"/></g>
<g><path style="opacity:1" fill="#f88e4c" d="M 155.5,208.5 C 161.488,208.664 162.821,211.164 159.5,216C 115.155,240.195 70.4882,263.695 25.5,286.5C 21.7391,285.633 20.7391,283.466 22.5,280C 67.2135,256.647 111.547,232.813 155.5,208.5 Z"/></g>
<g><path style="opacity:1" fill="#6c5343" d="M 259.5,212.5 C 260.178,231.735 260.845,251.069 261.5,270.5C 259.512,251.529 258.846,232.196 259.5,212.5 Z"/></g>
<g><path style="opacity:1" fill="#f88e4c" d="M 163.5,222.5 C 168,222.164 169.833,224.164 169,228.5C 164.084,232.043 158.917,235.21 153.5,238C 155.968,242.63 158.634,247.13 161.5,251.5C 166.447,248.443 171.614,245.776 177,243.5C 181.477,245.951 181.644,248.785 177.5,252C 173.143,253.841 169.143,256.174 165.5,259C 167.443,263.72 169.776,268.22 172.5,272.5C 177.553,269.615 182.719,266.948 188,264.5C 191.452,266.073 192.286,268.573 190.5,272C 183.903,275.467 177.236,278.633 170.5,281.5C 169.5,281.167 168.5,280.833 167.5,280.5C 159.567,265.753 151.9,250.92 144.5,236C 144.585,234.893 144.919,233.893 145.5,233C 151.727,229.726 157.727,226.226 163.5,222.5 Z"/></g>
<g><path style="opacity:1" fill="#f88e4c" d="M 128.5,241.5 C 140.253,240.688 146.92,246.021 148.5,257.5C 148.189,261.398 147.356,265.065 146,268.5C 151.667,272.833 157.333,277.167 163,281.5C 164.5,286.667 162.667,288.5 157.5,287C 151.5,282.667 145.5,278.333 139.5,274C 136.741,273.023 134.741,273.856 133.5,276.5C 136.588,281.675 139.421,287.008 142,292.5C 143.5,297.667 141.667,299.5 136.5,298C 127.846,283.192 119.846,268.025 112.5,252.5C 112.529,250.971 113.196,249.804 114.5,249C 119.387,246.726 124.054,244.226 128.5,241.5 Z"/></g>
<g><path style="opacity:1" fill="#464240" d="M 130.5,249.5 C 138.875,250.255 141.708,254.589 139,262.5C 135.918,264.625 132.751,266.625 129.5,268.5C 126.776,264.22 124.443,259.72 122.5,255C 125.029,252.907 127.696,251.074 130.5,249.5 Z"/></g>
<g><path style="opacity:1" fill="#f88e4c" d="M 96.5,258.5 C 103.289,257.818 109.122,259.818 114,264.5C 115.141,267.857 113.975,269.857 110.5,270.5C 108.203,269.351 105.87,268.185 103.5,267C 100.472,265.86 98.3051,266.694 97,269.5C 96.4176,282.835 101.584,293.335 112.5,301C 114.5,301.667 116.5,301.667 118.5,301C 119.588,297.519 120.921,294.185 122.5,291C 124.701,290.175 126.534,290.675 128,292.5C 129.594,305.906 123.761,311.406 110.5,309C 93.1146,298.405 86.6146,283.238 91,263.5C 92.7297,261.598 94.563,259.931 96.5,258.5 Z"/></g>
<g><path style="opacity:1" fill="#f88e4c" d="M 72.5,271.5 C 77.6752,270.507 79.5086,272.507 78,277.5C 73.0467,280.389 68.2134,283.389 63.5,286.5C 65.4288,291.372 68.0955,295.705 71.5,299.5C 76.0098,296.495 80.8431,294.162 86,292.5C 91.2658,293.974 91.7658,296.474 87.5,300C 82.8398,301.995 78.5065,304.495 74.5,307.5C 76.9301,312.037 79.5968,316.37 82.5,320.5C 87.3157,318.008 92.149,315.675 97,313.5C 101.183,314.086 102.35,316.253 100.5,320C 93.8856,323.891 87.0523,327.391 80,330.5C 77.3151,328.825 75.3151,326.492 74,323.5C 67.0316,310.396 60.1982,297.23 53.5,284C 53.7591,282.739 54.4258,281.739 55.5,281C 61.229,277.806 66.8956,274.639 72.5,271.5 Z"/></g>
<g><path style="opacity:1" fill="#424040" d="M 226.5,276.5 C 273.235,274.178 311.568,290.845 341.5,326.5C 310.048,368.224 268.381,385.724 216.5,379C 184.45,370.771 158.784,353.271 139.5,326.5C 162.125,298.689 191.125,282.022 226.5,276.5 Z"/></g>
<g><path style="opacity:1" fill="#f88e4c" d="M 232.5,282.5 C 269.976,282.475 287.81,301.142 286,338.5C 276.934,365.627 258.1,377.461 229.5,374C 203.413,364.672 191.913,346.172 195,318.5C 200.557,299.107 213.057,287.107 232.5,282.5 Z"/></g>
<g><path style="opacity:1" fill="#434140" d="M 231.5,290.5 C 254.715,288.175 270.215,297.841 278,319.5C 281.287,341.437 272.787,356.604 252.5,365C 227.309,370.327 210.809,360.827 203,336.5C 200.591,313.63 210.091,298.296 231.5,290.5 Z"/></g>
<g><path style="opacity:1" fill="#f88e4c" d="M 34.5,291.5 C 42.3798,290.181 48.8798,292.514 54,298.5C 55.2052,301.868 54.2052,304.202 51,305.5C 48.4061,303.839 45.9061,302.006 43.5,300C 35.3333,298.833 31.8333,302.333 33,310.5C 34.1667,311.667 35.3333,312.833 36.5,314C 42.7882,313.369 49.1215,313.036 55.5,313C 67.8717,318.255 70.705,326.755 64,338.5C 56.2614,344.756 48.2614,345.089 40,339.5C 37.81,337.217 37.1433,334.551 38,331.5C 38.7387,330.426 39.7387,329.759 41,329.5C 43.8224,331.653 46.6558,333.819 49.5,336C 55.143,336.368 58.4763,333.701 59.5,328C 59.2048,325.077 57.8715,322.743 55.5,321C 48.581,322.051 41.581,322.385 34.5,322C 25.5741,316.898 22.7407,309.398 26,299.5C 28.1565,296.024 30.9898,293.357 34.5,291.5 Z"/></g>
<g><path style="opacity:1" fill="#fc8f4c" d="M 235.5,303.5 C 256.505,303.336 266.338,313.669 265,334.5C 259.949,348.948 249.782,355.114 234.5,353C 217.844,346.369 212.344,334.536 218,317.5C 222.214,310.783 228.048,306.117 235.5,303.5 Z"/></g>
<g><path style="opacity:1" fill="#444140" d="M 395.5,304.5 C 425.169,304.333 454.835,304.5 484.5,305C 487.583,305.786 489.749,307.619 491,310.5C 491.933,321.906 491.6,333.239 490,344.5C 488.786,346.049 487.286,347.215 485.5,348C 455.167,348.667 424.833,348.667 394.5,348C 392.622,346.457 391.122,344.624 390,342.5C 389.333,331.833 389.333,321.167 390,310.5C 391.36,307.977 393.193,305.977 395.5,304.5 Z"/></g>
<g><path style="opacity:1" fill="#fa8f4c" d="M 403.5,311.5 C 407.789,310.483 410.122,312.15 410.5,316.5C 416.033,313.365 418.2,315.032 417,321.5C 415.167,323.333 413.333,325.167 411.5,327C 413.333,328.833 415.167,330.667 417,332.5C 417.783,338.745 415.449,340.078 410,336.5C 409.978,341.044 407.812,342.544 403.5,341C 402.382,339.926 401.382,338.76 400.5,337.5C 395.383,339.551 393.549,337.885 395,332.5C 396.833,330.667 398.667,328.833 400.5,327C 398.667,325.167 396.833,323.333 395,321.5C 393.8,315.032 395.967,313.365 401.5,316.5C 402.322,314.861 402.989,313.195 403.5,311.5 Z"/></g>
<g><path style="opacity:1" fill="#fa8f4c" d="M 438.5,311.5 C 442.251,311.082 444.418,312.749 445,316.5C 448.493,313.498 450.993,314.165 452.5,318.5C 450.918,321.424 448.918,324.091 446.5,326.5C 448.149,328.65 449.982,330.65 452,332.5C 452.333,338.5 450,339.833 445,336.5C 444.208,341.135 441.708,342.469 437.5,340.5C 436.902,339.205 436.402,337.872 436,336.5C 432.507,339.502 430.007,338.835 428.5,334.5C 430.082,331.576 432.082,328.909 434.5,326.5C 432.851,324.35 431.018,322.35 429,320.5C 428.667,314.5 431,313.167 436,316.5C 436.366,314.548 437.199,312.882 438.5,311.5 Z"/></g>
<g><path style="opacity:1" fill="#f78d4c" d="M 472.5,311.5 C 476.4,310.991 478.733,312.658 479.5,316.5C 484.797,313.611 486.964,315.277 486,321.5C 484.167,323.333 482.333,325.167 480.5,327C 482.333,328.833 484.167,330.667 486,332.5C 487.293,335.862 486.293,337.862 483,338.5C 481.289,338.561 479.956,337.894 479,336.5C 478.978,341.044 476.812,342.544 472.5,341C 471.382,339.926 470.382,338.76 469.5,337.5C 466.19,339.259 463.856,338.426 462.5,335C 463.902,331.761 465.902,328.928 468.5,326.5C 466.851,324.35 465.018,322.35 463,320.5C 462.378,315.293 464.544,313.626 469.5,315.5C 470.524,314.148 471.524,312.815 472.5,311.5 Z"/></g>
<g><path style="opacity:1" fill="#444140" d="M 238.5,322.5 C 246.957,323.437 248.624,327.27 243.5,334C 236.667,335.167 233.833,332.333 235,325.5C 236.145,324.364 237.312,323.364 238.5,322.5 Z"/></g>
<g><path style="opacity:1" fill="#404040" d="M 362.5,363.5 C 363.494,353.013 363.828,342.346 363.5,331.5C 365.167,331.5 366.833,331.5 368.5,331.5C 368.334,338.175 368.5,344.842 369,351.5C 371.84,354.371 374.174,354.037 376,350.5C 376.5,343.842 376.666,337.175 376.5,330.5C 378.167,330.5 379.833,330.5 381.5,330.5C 379.117,342.25 383.117,350.75 393.5,356C 424.167,356.667 454.833,356.667 485.5,356C 492.247,354.083 496.914,349.916 499.5,343.5C 499.5,395.5 499.5,447.5 499.5,499.5C 332.833,499.5 166.167,499.5 -0.5,499.5C -0.5,461.833 -0.5,424.167 -0.5,386.5C 0.267389,387.172 0.934056,388.005 1.5,389C 83.5,389.667 165.5,389.667 247.5,389C 251.863,388.631 256.196,388.131 260.5,387.5C 261.5,387.5 262.5,387.5 263.5,387.5C 263.5,401.833 263.5,416.167 263.5,430.5C 255.826,430.334 248.159,430.5 240.5,431C 237.72,434.021 238.053,436.521 241.5,438.5C 248.648,439.492 255.981,439.825 263.5,439.5C 263.179,445.026 263.512,450.36 264.5,455.5C 264.511,457.017 265.177,458.184 266.5,459C 284.164,459.5 301.83,459.667 319.5,459.5C 319.109,466.921 319.609,474.254 321,481.5C 323.799,487.825 328.632,491.659 335.5,493C 380.5,493.667 425.5,493.667 470.5,493C 477.008,491.827 481.842,488.327 485,482.5C 486.134,467.552 486.634,452.552 486.5,437.5C 486.333,423.833 486.167,410.167 486,396.5C 482.904,389.734 477.737,385.568 470.5,384C 425.5,383.333 380.5,383.333 335.5,384C 327.837,385.665 322.67,390.165 320,397.5C 319.5,415.164 319.333,432.83 319.5,450.5C 303.833,450.5 288.167,450.5 272.5,450.5C 272.5,441.167 272.5,431.833 272.5,422.5C 282.839,422.666 293.172,422.5 303.5,422C 306.167,419.667 306.167,417.333 303.5,415C 293.172,414.5 282.839,414.334 272.5,414.5C 272.5,412.167 272.5,409.833 272.5,407.5C 278.842,407.666 285.175,407.5 291.5,407C 294.167,404.667 294.167,402.333 291.5,400C 285.175,399.5 278.842,399.334 272.5,399.5C 272.173,394.456 272.506,389.456 273.5,384.5C 304.452,375.023 329.452,357.189 348.5,331C 350.473,330.505 352.473,330.338 354.5,330.5C 354.333,341.838 354.5,353.172 355,364.5C 355.956,365.894 357.289,366.561 359,366.5C 361.275,366.722 362.441,365.722 362.5,363.5 Z"/></g>
<g><path style="opacity:1" fill="#695143" d="M 368.5,331.5 C 366.833,331.5 365.167,331.5 363.5,331.5C 363.828,342.346 363.494,353.013 362.5,363.5C 362.5,352.5 362.5,341.5 362.5,330.5C 364.735,330.205 366.735,330.539 368.5,331.5 Z"/></g>
<g><path style="opacity:1" fill="#705443" d="M 193.5,379.5 C 194.289,379.783 194.956,380.283 195.5,381C 132.665,381.832 69.9987,381.665 7.5,380.5C 69.6689,380.832 131.669,380.499 193.5,379.5 Z"/></g>
<g><path style="opacity:1" fill="#8e6145" d="M 260.5,387.5 C 261.568,386.566 262.901,386.232 264.5,386.5C 264.829,401.343 264.496,416.01 263.5,430.5C 263.5,416.167 263.5,401.833 263.5,387.5C 262.5,387.5 261.5,387.5 260.5,387.5 Z"/></g>
<g><path style="opacity:1" fill="#414040" d="M 333.5,392.5 C 380.585,392.01 427.585,392.51 474.5,394C 476.049,395.214 477.215,396.714 478,398.5C 478.982,425.92 478.649,453.253 477,480.5C 475.681,482.487 473.848,483.654 471.5,484C 425.833,484.667 380.167,484.667 334.5,484C 330.594,483.027 328.427,480.527 328,476.5C 327.333,450.833 327.333,425.167 328,399.5C 328.967,396.379 330.8,394.046 333.5,392.5 Z"/></g>
<g><path style="opacity:1" fill="#f98e4c" d="M 336.5,404.5 C 372.502,404.333 408.502,404.5 444.5,405C 445.982,407.592 445.648,409.925 443.5,412C 408.167,412.667 372.833,412.667 337.5,412C 335.163,409.806 334.83,407.306 336.5,404.5 Z"/></g>
<g><path style="opacity:1" fill="#f38c4c" d="M 336.5,426.5 C 381.501,426.333 426.501,426.5 471.5,427C 472.982,429.592 472.648,431.925 470.5,434C 426.167,434.667 381.833,434.667 337.5,434C 335.163,431.806 334.83,429.306 336.5,426.5 Z"/></g>
<g><path style="opacity:1" fill="#825b44" d="M 241.5,438.5 C 249.167,438.5 256.833,438.5 264.5,438.5C 264.5,444.167 264.5,449.833 264.5,455.5C 263.512,450.36 263.179,445.026 263.5,439.5C 255.981,439.825 248.648,439.492 241.5,438.5 Z"/></g>
<g><path style="opacity:1" fill="#f38c4c" d="M 337.5,456.5 C 372.168,456.333 406.835,456.5 441.5,457C 444.859,459.034 445.192,461.368 442.5,464C 407.162,464.833 371.829,464.667 336.5,463.5C 335.073,460.884 335.406,458.551 337.5,456.5 Z"/></g>
</svg>
