<svg xmlns="http://www.w3.org/2000/svg" viewBox="0 0 100 100" width="100" height="100">
  <!-- Outer gear to represent machinery -->
  <circle cx="50" cy="50" r="45" stroke="#ffbc5e" stroke-width="5" fill="none"/>
  <g stroke="#ffdb6e" stroke-width="4" fill="none">
    <!-- Gear spokes -->
    <line x1="50" y1="5" x2="50" y2="25"/>
    <line x1="50" y1="75" x2="50" y2="95"/>
    <line x1="95" y1="50" x2="75" y2="50"/>
    <line x1="5" y1="50" x2="25" y2="50"/>
    <line x1="19.1" y1="19.1" x2="32.9" y2="32.9"/>
    <line x1="19.1" y1="80.9" x2="32.9" y2="67.1"/>
    <line x1="80.9" y1="19.1" x2="67.1" y2="32.9"/>
    <line x1="80.9" y1="80.9" x2="67.1" y2="67.1"/>
  </g>

  <!-- Inner elements representing neural network -->
  <circle cx="50" cy="50" r="15" fill="#ffbc5e"/>
  <circle cx="50" cy="35" r="5" fill="#ffdb6e"/>
  <circle cx="50" cy="65" r="5" fill="#ffdb6e"/>
  <circle cx="65" cy="50" r="5" fill="#ffdb6e"/>
  <circle cx="35" cy="50" r="5" fill="#ffdb6e"/>

  <!-- Connecting lines (neural pathways) -->
  <line x1="50" y1="35" x2="65" y2="50" stroke="#ffbc5e" stroke-width="2"/>
  <line x1="50" y1="35" x2="35" y2="50" stroke="#ffbc5e" stroke-width="2"/>
  <line x1="50" y1="65" x2="65" y2="50" stroke="#ffbc5e" stroke-width="2"/>
  <line x1="50" y1="65" x2="35" y2="50" stroke="#ffbc5e" stroke-width="2"/>
</svg>
