<?xml version="1.0" standalone="no"?>
<!DOCTYPE svg PUBLIC "-//W3C//DTD SVG 20010904//EN"
 "http://www.w3.org/TR/2001/REC-SVG-20010904/DTD/svg10.dtd">
<svg version="1.0" xmlns="http://www.w3.org/2000/svg"
 width="512.000000pt" height="512.000000pt" viewBox="0 0 512.000000 512.000000"
 preserveAspectRatio="xMidYMid meet">

<g transform="translate(0.000000,512.000000) scale(0.100000,-0.100000)"
fill="#FFDB6E" stroke="none">
<path d="M1125 4698 c-226 -231 -454 -468 -508 -524 l-99 -104 2046 0 2046 0
0 525 0 525 -1537 0 -1538 0 -410 -422z"/>
<path d="M1870 2579 c-580 -676 -1061 -1239 -1069 -1249 -13 -20 -7 -20 690
-20 l704 1 1055 1230 c580 676 1061 1238 1069 1249 13 20 8 20 -690 20 l-704
-1 -1055 -1230z"/>
<path d="M510 525 l0 -525 1538 0 1537 0 410 422 c226 231 454 468 508 524
l99 104 -2046 0 -2046 0 0 -525z"/>
</g>
</svg>
