<svg width="185" height="185" viewBox="0 0 185 185" fill="none" xmlns="http://www.w3.org/2000/svg">
  <path d="M0 92.5C0 41.4137 41.4137 0 92.5 0H135C162.614 0 185 22.3858 185 50V92.5C185 143.586 143.586 185 92.5 185V185C41.4137 185 0 143.586 0 92.5V92.5Z" fill="url(#paint0_linear)"/>
  <path d="M116.586 69.586C118.468 71.468 120.076 73.772 121.29 76.281L132.485 76.671C133.679 77.036 134.5 78.036 134.5 79.5V97.5C134.5 98.964 133.679 99.964 132.485 100.329L121.29 100.719C120.076 103.228 118.468 105.532 116.586 107.414L117.681 117.142C118.345 118.293 118.5 119.738 118.5 121.5C118.5 123.262 118.345 124.707 117.681 125.858L116.586 135.586C114.636 137.536 112.086 138.5 109.5 138.5H75.5C72.914 138.5 70.364 137.536 68.414 135.586L67.319 125.858C66.655 124.707 66.5 123.262 66.5 121.5C66.5 119.738 66.655 118.293 67.319 117.142L68.414 107.414C66.532 105.532 64.924 103.228 63.71 100.719L52.515 100.329C51.321 99.964 50.5 98.964 50.5 97.5V79.5C50.5 78.036 51.321 77.036 52.515 76.671L63.71 76.281C64.924 73.772 66.532 71.468 68.414 69.586L67.319 59.858C66.655 58.707 66.5 57.262 66.5 55.5C66.5 53.738 66.655 52.293 67.319 51.142L68.414 41.414C70.364 39.464 72.914 38.5 75.5 38.5H109.5C112.086 38.5 114.636 39.464 116.586 41.414L117.681 51.142C118.345 52.293 118.5 53.738 118.5 55.5C118.5 57.262 118.345 58.707 117.681 59.858L116.586 69.586Z" fill="black" fill-opacity="0.86"/>
  <defs>
    <linearGradient id="paint0_linear" x1="0" y1="92" x2="185" y2="92" gradientUnits="userSpaceOnUse">
      <stop stop-color="#FFDB6E"/>
      <stop offset="1" stop-color="#FFBC5E"/>
    </linearGradient>
  </defs>
</svg>
